<svg width="1600" height="480" viewBox="0 0 1600 480" fill="none" xmlns="http://www.w3.org/2000/svg">
  <defs>
    <linearGradient id="bg" x1="120" y1="40" x2="1460" y2="440" gradientUnits="userSpaceOnUse">
      <stop stop-color="#09111F"/>
      <stop offset="0.4" stop-color="#152849"/>
      <stop offset="1" stop-color="#2D4D73"/>
    </linearGradient>
    <linearGradient id="glow" x1="320" y1="140" x2="1160" y2="360" gradientUnits="userSpaceOnUse">
      <stop stop-color="#F8DDA4" stop-opacity="0.8"/>
      <stop offset="0.5" stop-color="#B6D8FF" stop-opacity="0.45"/>
      <stop offset="1" stop-color="#9AE6D1" stop-opacity="0.2"/>
    </linearGradient>
    <filter id="blur" x="0" y="0" width="1600" height="480" filterUnits="userSpaceOnUse" color-interpolation-filters="sRGB">
      <feGaussianBlur stdDeviation="40"/>
    </filter>
  </defs>
  <rect width="1600" height="480" rx="32" fill="url(#bg)"/>
  <g filter="url(#blur)">
    <ellipse cx="380" cy="130" rx="210" ry="90" fill="#F2C66D" fill-opacity="0.45"/>
    <ellipse cx="1180" cy="330" rx="280" ry="100" fill="#7CC7FF" fill-opacity="0.28"/>
    <ellipse cx="860" cy="210" rx="360" ry="110" fill="url(#glow)"/>
  </g>
  <path d="M0 352C146 314 250 313 390 336C530 359 612 402 759 403C906 404 991 335 1134 324C1277 313 1416 349 1600 300V480H0V352Z" fill="#0D1A2E" fill-opacity="0.72"/>
  <path d="M0 380C186 331 314 360 464 391C614 422 762 438 932 398C1102 358 1283 303 1600 352V480H0V380Z" fill="#132742" fill-opacity="0.85"/>
  <circle cx="1248" cy="112" r="3" fill="#FFF6D6"/>
  <circle cx="1294" cy="156" r="2.5" fill="#FFF6D6"/>
  <circle cx="1186" cy="170" r="2" fill="#FFF6D6"/>
  <circle cx="1334" cy="114" r="2" fill="#FFF6D6"/>
  <circle cx="1098" cy="126" r="2.5" fill="#FFF6D6"/>
  <text x="120" y="188" fill="#F6F7FB" font-family="Georgia, serif" font-size="64" font-weight="700" letter-spacing="1">Dream Workflow</text>
  <text x="122" y="244" fill="#D8E6FF" font-family="Verdana, sans-serif" font-size="28">Combining GSD planning with the Ralph loop to 100x development</text>
  <text x="122" y="302" fill="#A9C0DF" font-family="Verdana, sans-serif" font-size="22">Plan deeply. Hand off cleanly. Execute with fresh context.</text>
</svg>
